<?xml version="1.0" encoding="UTF-8" standalone="no"?>
<!-- Created with Inkscape (http://www.inkscape.org/) -->

<svg
   xmlns:dc="http://purl.org/dc/elements/1.1/"
   xmlns:cc="http://creativecommons.org/ns#"
   xmlns:rdf="http://www.w3.org/1999/02/22-rdf-syntax-ns#"
   xmlns:svg="http://www.w3.org/2000/svg"
   xmlns="http://www.w3.org/2000/svg"
   xmlns:sodipodi="http://sodipodi.sourceforge.net/DTD/sodipodi-0.dtd"
   xmlns:inkscape="http://www.inkscape.org/namespaces/inkscape"
   width="612pt"
   height="792pt"
   id="svg3938"
   version="1.1"
   inkscape:version="0.47 r22583"
   sodipodi:docname="linuxchix_draft_1.svg">
  <defs
     id="defs3940">
    <inkscape:perspective
       sodipodi:type="inkscape:persp3d"
       inkscape:vp_x="0 : 495 : 1"
       inkscape:vp_y="0 : 1000 : 0"
       inkscape:vp_z="765 : 495 : 1"
       inkscape:persp3d-origin="382.5 : 330 : 1"
       id="perspective3947" />
    <inkscape:perspective
       id="perspective3869"
       inkscape:persp3d-origin="0.5 : 0.33333333 : 1"
       inkscape:vp_z="1 : 0.5 : 1"
       inkscape:vp_y="0 : 1000 : 0"
       inkscape:vp_x="0 : 0.5 : 1"
       sodipodi:type="inkscape:persp3d" />
    <filter
       id="filter4100"
       inkscape:label="Desaturate"
       x="0"
       y="0"
       width="1"
       height="1"
       inkscape:menu="Color"
       inkscape:menu-tooltip="Render in shades of gray by reducing saturation to zero"
       color-interpolation-filters="sRGB">
      <feColorMatrix
         id="feColorMatrix4102"
         type="saturate"
         values="0" />
    </filter>
  </defs>
  <sodipodi:namedview
     inkscape:document-units="in"
     pagecolor="#ffffff"
     bordercolor="#666666"
     borderopacity="1.0"
     inkscape:pageopacity="0.0"
     inkscape:pageshadow="2"
     inkscape:zoom="0.50911688"
     inkscape:cx="490.44753"
     inkscape:cy="636.53572"
     inkscape:current-layer="layer1"
     id="namedview3942"
     showgrid="false"
     inkscape:window-width="1024"
     inkscape:window-height="532"
     inkscape:window-x="0"
     inkscape:window-y="21"
     inkscape:window-maximized="1"
     showguides="true" />
  <metadata
     id="metadata3944">
    <rdf:RDF>
      <cc:Work
         rdf:about="">
        <dc:format>image/svg+xml</dc:format>
        <dc:type
           rdf:resource="http://purl.org/dc/dcmitype/StillImage" />
        <dc:title />
      </cc:Work>
    </rdf:RDF>
  </metadata>
  <g
     inkscape:label="Layer 1"
     inkscape:groupmode="layer"
     id="layer1">
    <g
       id="g23319"
       transform="matrix(1.9204993,0,0,1.6902381,241.23847,-244.56008)"
       style="filter:url(#filter4100)">
      <g
         id="g22128"
         style="fill:#11137e;fill-rule:evenodd;stroke:none"
         transform="translate(52.6992,569.297)">
        <path
           id="path22130"
           d="M 10.7969,0 C 4.8438,0 0,4.644 0,10.351 c 0,5.711 4.8438,10.352 10.7969,10.352 5.9492,0 10.7969,-4.641 10.7969,-10.352 C 21.5938,4.644 16.7461,0 10.7969,0 z m 0,20.109 c -5.625,0 -10.2031,-4.379 -10.2031,-9.758 0,-5.378 4.5781,-9.757 10.2031,-9.757 5.625,0 10.1992,4.379 10.1992,9.757 0,5.379 -4.5742,9.758 -10.1992,9.758 z" />
      </g>
      <g
         id="g22132"
         style="fill:#11137e;fill-rule:evenodd;stroke:none"
         transform="translate(58.0664,573.977)">
        <path
           id="path22134"
           d="M 6.5352,0 C 2.9258,0 0,2.804 0,6.269 c 0,3.461 2.9258,6.266 6.5352,6.266 3.6054,0 6.5273,-2.805 6.5273,-6.266 C 13.0625,2.804 10.1406,0 6.5352,0 z M 3.9766,3.195 C 3.3672,3.933 2.6367,4.335 2.3477,4.093 2.0547,3.851 2.3125,3.062 2.9219,2.324 3.5313,1.585 4.2578,1.187 4.5508,1.425 4.8398,1.668 4.582,2.461 3.9766,3.195 z m 2.2968,8.754 c -0.207,0 -0.414,-0.012 -0.6171,-0.031 1.9882,-0.122 3.9414,-1.34 5.0234,-3.368 1.2266,-2.289 0.9687,-4.941 -0.4492,-6.699 1.2539,1.059 2.0508,2.606 2.0508,4.332 0,3.184 -2.6915,5.766 -6.0079,5.766 z" />
      </g>
      <g
         id="g22136"
         style="fill:#11137e;fill-rule:evenodd;stroke:none"
         transform="translate(64.082,522.215)">
        <path
           id="path22138"
           d="M 7.918,1.394 C 7.543,1.437 2.7696,0 2.7696,0 1.6172,0 0,1.652 0,1.652 0,1.652 2.3203,0.586 2.3203,0.586 3.6016,0.57 7.543,2.637 7.543,2.637 8.3985,2.269 8.2578,0.957 8.2578,0.957 c 0,0 -0.3398,0.437 -0.3398,0.437 z" />
      </g>
      <g
         id="g22140"
         style="fill:#11137e;fill-rule:evenodd;stroke:none"
         transform="translate(65.0469,523.422)">
        <path
           id="path22142"
           d="m 5.5625,1.633 c 0,0 -2.2383,-1.633 -1.0821,-0.403 0,0 -4.4062,-0.988 -4.4804,1.203 0,0 0.6367,0.676 1.1015,0.641 0,0 0.1446,-1.226 0.9414,-1.531 0,0 2.1836,-0.535 3.5821,0.93 0,0 0.6875,0.402 0.6875,0.402 0,0 -0.75,-1.242 -0.75,-1.242 z" />
      </g>
      <g
         id="g22144"
         style="fill:#11137e;fill-rule:evenodd;stroke:none"
         transform="translate(67.1094,524.715)">
        <path
           id="path22146"
           d="M 1.0195,0.047 C 0.4414,0.094 0,0.48 0.0312,0.914 0.0625,1.344 0.5547,1.66 1.1328,1.613 1.7148,1.57 2.1562,1.18 2.125,0.75 2.0937,0.316 1.5976,0 1.0195,0.047 z M 0.6211,0.926 C 0.4609,0.937 0.3203,0.828 0.3125,0.676 0.3008,0.523 0.4218,0.39 0.582,0.375 0.7422,0.363 0.8789,0.476 0.8906,0.629 0.9023,0.781 0.7812,0.914 0.6211,0.926 z" />
      </g>
      <g
         id="g22148"
         style="fill:#11137e;fill-rule:evenodd;stroke:none"
         transform="translate(55.9531,526.391)">
        <path
           id="path22150"
           d="m 3.6563,2.297 c 0,0 -0.1094,-2.297 -2.8828,-0.575 0,0 -0.7735,0.805 0.1132,1.606 0,0 -0.4453,-1.031 0.2227,-1.262 0,0 0.3281,1.609 1.4375,2.527 0,0 -1.3281,-2.64 0,-2.871 0,0 -0.332,1.953 0.7773,2.184 0,0 1.3282,0.34 1.3282,0.34 0,0 -1.7735,-1.375 -0.9961,-1.949 z" />
      </g>
      <g
         id="g22152"
         style="fill:#11137e;fill-rule:evenodd;stroke:none"
         transform="translate(67.9023,526.273)">
        <path
           id="path22154"
           d="m 0,0.836 c 0,0 2.1758,0.403 2.7891,-0.836 0,0 0.2617,0.02 0.2617,0.02 0,0 -0.5859,1.582 -1.9687,1.918 0,0 0.7422,-0.477 0.6718,-0.934 0,0 -0.5703,0.313 -1.7539,-0.168 z" />
      </g>
      <g
         id="g22156"
         style="fill:#11137e;fill-rule:evenodd;stroke:none"
         transform="translate(66.7969,603.457)">
        <path
           id="path22158"
           d="M 1.4883,0.043 C 0.8945,0.004 0.3867,0 0,0.039 c 0,0 0.8593,0.09 0.8593,0.09 0,0 0.629,-0.086 0.629,-0.086 z" />
      </g>
      <g
         id="g22160"
         style="fill:#11137e;fill-rule:evenodd;stroke:none"
         transform="translate(83.8633,587.977)">
        <path
           id="path22162"
           d="M 0,0 C 2.2305,2.527 4.6094,8.918 4.6094,8.918 4.0117,3.418 0,0 0,0 z" />
      </g>
      <g
         id="g22164"
         style="fill:#11137e;fill-rule:evenodd;stroke:none"
         transform="translate(47.9922,669.625)">
        <path
           id="path22166"
           d="m 1.7734,0 c 0.1172,0.168 0.1875,0.371 0.1875,0.59 0,0.574 -0.4648,1.043 -1.039,1.043 C 0.5195,1.633 0.1719,1.398 0,1.063 0.0976,1.555 0.582,1.93 1.168,1.93 1.8281,1.93 2.3594,1.461 2.3594,0.887 2.3594,0.508 2.125,0.18 1.7734,0 z" />
      </g>
      <g
         id="g22168"
         style="fill:#11137e;fill-rule:evenodd;stroke:none"
         transform="translate(55.5234,677.75)">
        <path
           id="path22170"
           d="m 1.7774,0 c 0.1172,0.168 0.1875,0.375 0.1875,0.594 0,0.574 -0.4688,1.039 -1.043,1.039 C 0.5196,1.633 0.1758,1.402 0,1.066 0.0977,1.559 0.5821,1.934 1.1719,1.934 1.8282,1.934 2.3594,1.465 2.3594,0.891 2.3594,0.512 2.125,0.184 1.7774,0 z" />
      </g>
      <g
         id="g22172"
         style="fill:#11137e;fill-rule:evenodd;stroke:none"
         transform="translate(61.4727,686.867)">
        <path
           id="path22174"
           d="m 1.7773,0 c 0.1172,0.172 0.1875,0.375 0.1875,0.594 0,0.578 -0.4687,1.043 -1.043,1.043 C 0.5195,1.637 0.1718,1.406 0,1.071 0.0937,1.559 0.582,1.934 1.1679,1.934 1.8242,1.934 2.3593,1.465 2.3593,0.891 2.3593,0.512 2.1211,0.184 1.7773,0 z" />
      </g>
      <g
         id="g22176"
         style="fill:#11137e;fill-rule:evenodd;stroke:none"
         transform="translate(65.6367,696.344)">
        <path
           id="path22178"
           d="M 1.7735,0 C 1.8906,0.16 1.961,0.351 1.961,0.558 1.961,1.094 1.4961,1.531 0.9219,1.531 0.5195,1.531 0.1719,1.316 0,1 0.0938,1.465 0.5821,1.812 1.168,1.812 1.8242,1.812 2.3594,1.375 2.3594,0.836 2.3594,0.48 2.1211,0.172 1.7735,0 z" />
      </g>
      <g
         id="g22180"
         style="fill:#11137e;fill-rule:evenodd;stroke:none"
         transform="translate(84.0703,617.488)">
        <path
           id="path22182"
           d="m 1.7774,0 c 0.1171,0.168 0.1875,0.371 0.1875,0.594 0,0.574 -0.4688,1.039 -1.043,1.039 C 0.5195,1.633 0.1719,1.403 0,1.067 0.0977,1.559 0.582,1.93 1.1719,1.93 1.8242,1.93 2.3594,1.465 2.3594,0.891 2.3594,0.508 2.1211,0.18 1.7774,0 z" />
      </g>
      <g
         id="g22184"
         style="fill:#11137e;fill-rule:evenodd;stroke:none"
         transform="translate(84.6641,635.527)">
        <path
           id="path22186"
           d="M 1.7773,0 C 1.8945,0.168 1.9648,0.371 1.9648,0.594 1.9648,1.168 1.5,1.633 0.9218,1.633 0.5195,1.633 0.1718,1.403 0,1.067 0.0976,1.555 0.582,1.93 1.1718,1.93 1.8281,1.93 2.3593,1.465 2.3593,0.891 2.3593,0.512 2.125,0.18 1.7773,0 z" />
      </g>
      <g
         id="g22188"
         style="fill:#11137e;fill-rule:evenodd;stroke:none"
         transform="translate(84.4688,653.367)">
        <path
           id="path22190"
           d="M 1.7734,0 C 1.8906,0.168 1.9609,0.371 1.9609,0.594 1.9609,1.168 1.496,1.633 0.9218,1.633 0.5156,1.633 0.1718,1.403 0,1.067 0.0937,1.559 0.5781,1.934 1.1679,1.934 1.8242,1.934 2.3554,1.465 2.3554,0.891 2.3554,0.512 2.121,0.184 1.7734,0 z" />
      </g>
      <g
         id="g22192"
         style="fill:#11137e;fill-rule:evenodd;stroke:none"
         transform="translate(83.6758,671.008)">
        <path
           id="path22194"
           d="m 1.7734,0 c 0.1172,0.172 0.1875,0.375 0.1875,0.597 0,0.575 -0.4648,1.04 -1.0429,1.04 C 0.5156,1.637 0.1719,1.406 0,1.07 0.0937,1.558 0.5781,1.933 1.168,1.933 1.8242,1.933 2.3554,1.469 2.3554,0.894 2.3554,0.512 2.1211,0.183 1.7734,0 z" />
      </g>
      <g
         id="g22196"
         style="fill:#11137e;fill-rule:evenodd;stroke:none"
         transform="translate(82.0859,689.645)">
        <path
           id="path22198"
           d="M 1.7774,0 C 1.8946,0.167 1.9649,0.371 1.9649,0.593 1.9649,1.167 1.5,1.632 0.9219,1.632 0.5196,1.632 0.1758,1.402 0,1.066 0.0977,1.554 0.5821,1.929 1.1719,1.929 1.8282,1.929 2.3594,1.464 2.3594,0.89 2.3594,0.511 2.125,0.179 1.7774,0 z" />
      </g>
      <g
         id="g22200"
         style="fill:#11137e;fill-rule:evenodd;stroke:none"
         transform="translate(90.2617,694.996)">
        <path
           id="path22202"
           d="m 1.1094,0 c 0.0742,0.168 0.1172,0.375 0.1172,0.594 0,0.574 -0.293,1.039 -0.6524,1.039 C 0.3242,1.633 0.1094,1.402 0,1.066 0.0586,1.559 0.3633,1.934 0.7305,1.934 1.1406,1.934 1.4727,1.465 1.4727,0.891 1.4727,0.512 1.3281,0.18 1.1094,0 z" />
      </g>
      <g
         id="g22204"
         style="fill:#11137e;fill-rule:evenodd;stroke:none"
         transform="translate(94.6211,687.266)">
        <path
           id="path22206"
           d="m 1.1129,0 c 0.071,0.168 0.118,0.371 0.118,0.593 0,0.575 -0.293,1.039 -0.653,1.039 C 0.3242,1.632 0.1094,1.402 0,1.066 c 0.0625,0.492 0.3633,0.863 0.7339,0.863 0.407,0 0.743,-0.465 0.743,-1.039 0,-0.379 -0.149,-0.711 -0.364,-0.89 z" />
      </g>
      <g
         id="g22208"
         style="fill:#11137e;fill-rule:evenodd;stroke:none"
         transform="translate(99.168,679.137)">
        <path
           id="path22210"
           d="M 0.832,0 C 0.887,0.172 0.918,0.375 0.918,0.593 0.918,1.168 0.703,1.636 0.434,1.636 0.242,1.636 0.082,1.402 0,1.066 0.047,1.558 0.273,1.933 0.547,1.933 0.855,1.933 1.105,1.468 1.105,0.89 1.105,0.511 0.996,0.183 0.832,0 z" />
      </g>
      <g
         id="g22212"
         style="fill:#11137e;fill-rule:evenodd;stroke:none"
         transform="translate(101.945,671.008)">
        <path
           id="path22214"
           d="m 0.828,0 c 0.055,0.172 0.09,0.375 0.09,0.597 0,0.575 -0.218,1.04 -0.488,1.04 C 0.243,1.637 0.078,1.406 0,1.07 0.043,1.558 0.27,1.933 0.547,1.933 0.856,1.933 1.106,1.469 1.106,0.894 1.106,0.512 0.993,0.183 0.828,0 z" />
      </g>
      <g
         id="g22216"
         style="fill:#11137e;fill-rule:evenodd;stroke:none"
         transform="translate(61.1328,704.316)">
        <path
           id="path22218"
           d="M 0,0 C 0,0 0.2188,1.645 0.2188,1.645 0.2422,1.059 0.2149,0.368 0,0 z" />
      </g>
      <g
         id="g22220"
         style="fill:#11137e;fill-rule:evenodd;stroke:none"
         transform="translate(61.3281,705.961)">
        <path
           id="path22222"
           d="M 0.0235,0 C 0.0157,0.141 0.0078,0.277 0,0.402 0.0235,0.398 0.0508,0.394 0.0742,0.394 0.0742,0.394 0.0235,0 0.0235,0 z" />
      </g>
      <g
         id="g22224"
         style="fill:#11137e;fill-rule:evenodd;stroke:none"
         transform="translate(30.9336,669.5)">
        <path
           id="path22226"
           d="M 2.5781,1.98 C 2.5781,1.98 1.7852,0 1.7852,0 1.7852,0 0,1.383 2.5781,1.98 z" />
      </g>
      <g
         id="g22228"
         style="fill:#11137e;fill-rule:evenodd;stroke:none"
         transform="translate(60.6523,524.559)">
        <path
           id="path22230"
           d="M 0.0313,0 C 0.0235,0.011 0.0118,0.023 0,0.039 0.0118,0.062 0.0274,0.082 0.043,0.109 0.043,0.109 0.0391,0.062 0.0313,0 z" />
      </g>
      <g
         id="g22232"
         style="fill:#11137e;fill-rule:evenodd;stroke:none"
         transform="translate(62.2227,522.879)">
        <path
           id="path22234"
           d="M 0.0585,0.148 C 0.0585,0.148 0.0507,0.098 0.0468,0 0.0351,0.012 0.0156,0.031 0,0.047 0.0195,0.078 0.0351,0.117 0.0585,0.148 z" />
      </g>
      <g
         id="g22236"
         style="fill:#11137e;fill-rule:evenodd;stroke:none"
         transform="translate(59.7227,531.09)">
        <path
           id="path22238"
           d="m 0.7421,0.297 c 0,0.164 -0.164,0.297 -0.371,0.297 C 0.164,0.594 0,0.461 0,0.297 0,0.133 0.164,0 0.3711,0 c 0.207,0 0.371,0.133 0.371,0.297 z" />
      </g>
      <g
         id="g22240"
         style="fill:#11137e;fill-rule:evenodd;stroke:none"
         transform="translate(9.7227,513.453)">
        <path
           id="path22242"
           d="m 135.839,189 c -1.347,-4.98 -40.4957,-4.476 -47.8707,-4.336 0,0 0.297,-2.801 0.297,-2.801 0.742,-0.144 1.934,-0.593 1.934,-0.593 0,0 0.965,-7.145 0.965,-7.145 2.511,-5.5 3.394,-9.359 3.394,-9.359 1.207,-4.024 1.051,-9.137 0.824,-12.02 2.172,-15.945 2.563,-30.297 2.313,-41.39 1.879,15.652 -0.363,31.207 -0.363,31.207 10.9017,21.808 11.1007,17.449 11.1007,17.449 1.785,-28.153 -9.3157,-76.324 -9.3157,-76.324 -2.133,-4.36 -3.789,-4.262 -4.926,-3.028 -1.305,-4.203 -3.121,-9.031 -4.93,-13.523 -0.156,-1.633 -0.55,-2.797 -0.55,-2.797 -0.426,-2.34 -1.981,-4.363 -2.84,-5.336 -1.8479,-4.285 -3.2073,-7.227 -3.2073,-7.227 -0.7344,-1.078 -2.3164,-1.937 -4.2773,-2.617 0,0 0.3359,-0.965 0.3359,-0.965 0.5,0.18 0.918,0.235 0.918,0.235 0.7422,0.371 1.4101,-0.742 1.4101,-0.742 0.7461,-0.149 0.5235,-1.266 0.5235,-1.266 -0.0742,-0.223 0.3711,-0.223 0.3711,-0.223 0.9648,-0.593 0.4453,-1.636 0.4453,-1.636 -0.0742,-0.297 0.3008,-0.52 0.3008,-0.52 0.7421,-0.371 0.4453,-1.187 0.4453,-1.187 0,-0.321 -1.4414,-1.641 -1.836,-1.997 0,0 0.4766,-1.351 0.4766,-1.351 0,0 0.168,-0.371 0.168,-0.371 0,0 1.4882,-0.891 1.4882,-0.891 -1.7109,-2.304 -3.7187,-1.562 -3.7187,-1.562 0,0 0.1445,1.789 0.1445,1.789 0,0 -0.664,1.703 -0.664,1.703 0,0 -0.5938,-0.219 -0.5938,-0.219 -1.9336,-1.414 -2.3789,1.485 -2.3789,1.485 0,0.445 -0.8203,1.039 -0.8203,1.039 0.1484,0.597 1.043,0.148 1.043,0.148 0,0.375 0.5195,0.598 0.5195,0.598 -0.8164,0.222 -0.4453,1.562 -0.4453,1.562 -0.5156,0.102 -0.9297,0.301 -1.2344,0.485 -0.4023,-0.567 -3.5742,-5.036 -4.3164,-7.079 0,0 -2.6758,-7.73 -4.8594,-7.828 0,0 -1.7812,-0.398 -2.4765,0.196 0,0 -3.2696,-0.297 -3.2696,-1.684 0,0 -0.1093,-1.195 -0.1875,-2.508 -0.0039,0 -0.0039,-0.004 -0.0078,-0.004 0,0 -0.0273,-0.906 -0.0273,-0.906 0,0 -0.1914,-0.109 -0.1914,-0.109 1.9258,0.558 3.1914,0.484 3.1914,0.484 0,0 0.8437,-0.664 0.8437,-0.664 0.8516,-0.461 4.5274,-2.844 6.2852,-10.281 0,0 0.164,-1.836 -0.4453,-3.848 0,0 0.1406,-1.586 0.3008,-2.726 0.2617,0.449 0.6992,1.179 0.9921,1.558 0,0 -0.1015,-2.246 -0.7187,-4.469 0.7305,1 1.3633,2.063 1.3633,2.063 C 71.3711,5.801 70.5,4.481 69.75,3.598 69.2578,2.524 68.5898,1.633 67.6835,1.262 c 0,0 -5.4296,-1.262 -7.5312,-0.344 0,0 -5.6523,-0.457 -10.6367,4.363 0,0 -1.5508,3.102 -1.3281,4.25 0,0 -3.1016,-1.035 -4.543,0.344 0,0 -2.3242,4.02 -1.6602,5.285 0,0 1.4375,5.395 1.9922,6.43 0,0 1.4414,5.051 -0.2187,6.199 0,0 -3.8789,1.723 -2.7735,-1.836 0,0 0.8907,-1.148 1.5508,-0.347 0,0 0,-1.145 -1.5508,-1.375 0,0 -4.539,2.871 -1.1054,4.363 0,0 1.8476,2 7.7656,1.555 -0.7305,1.086 -1.8125,2.878 -2.961,5.394 0,0 -0.2773,-1.113 -0.2773,-1.113 -2.875,-0.102 -3.668,2.676 -3.668,2.676 0,0 1.9805,1.089 1.9805,1.089 0,0 0.4258,0.668 0.4258,0.668 -0.7422,3.637 -3.8594,8.571 -4.7461,9.926 -2.7266,0.465 -5.0742,1.11 -6.0859,1.996 0,0 -0.9961,2.032 -0.9961,2.032 -0.7266,-0.036 -0.8868,0.742 -0.8868,0.742 0,0 0.211,0.636 0.211,0.636 0,0 -2.1016,4.286 -2.1016,4.286 -1.082,-0.129 -1.3203,0.769 -1.3203,0.769 0,0 0.3906,0.949 0.3906,0.949 0,0 0.1055,-0.152 0.1055,-0.152 -0.0156,0.066 -0.0273,0.133 -0.0391,0.199 0,0 -0.1992,0.399 -0.1992,0.399 0,0 -0.5156,-0.348 -0.5156,-0.348 0,0 -2.5781,5.355 -2.3789,6.543 0,0 0.0273,-0.027 0.0273,-0.027 -0.2031,2.367 0.2266,6.64 0.3438,7.707 0,0 -0.1328,0.109 -0.1328,0.109 -0.4453,-1.297 -0.9805,-2.461 -1.625,-3.426 0,0 0.1953,-1.984 -1.3868,1.188 0,0 -16.6523,34.293 -19.2304,66.211 0,0 -2.5781,13.281 -0.1992,11.894 0,0 14.9492,-10.777 21.8711,-37.769 -1.0704,9.324 -7.9922,23.695 -7.9922,23.695 2.8359,10.453 6.4609,19.105 8.0742,22.738 0.5625,4.305 2.4297,8.977 2.4297,8.977 0,0 4.332,3.117 4.332,3.117 0,0 0.3281,2.434 0.3281,2.434 0,0 1.0899,0.097 1.0899,0.097 0,0 2.2812,8.032 2.2812,8.032 0,0 0.6875,0.328 1.8203,0.488 0,0 0.9453,4.558 0.9453,4.558 -0.5546,0.172 -1.4804,0.5 -1.4804,0.5 0,0 -0.1016,0.977 -0.1016,0.977 0,0 -1.1836,0.316 -1.1836,0.316 0,0 -0.2461,3.481 -0.2461,3.481 0,0 -9.7656,8.164 -9.7656,8.164 -1.1914,0.742 -0.7461,1.043 -0.7461,1.043 6.2461,1.039 20.5195,8.473 20.5195,8.473 5.0547,-3.418 18.8829,-10.559 18.8829,-10.559 0,0 -2.086,-1.055 -2.086,-1.055 0,0 16.6406,-0.281 16.6406,-0.281 0,0 5.3672,4.164 5.3672,4.164 2.727,-0.652 20.0657,-1.867 24.4257,-2.164 2.129,0.383 0.254,-0.957 0.254,-0.957 -0.309,-0.199 -0.606,-0.387 -0.907,-0.57 0,0 -1.011,-1.871 -1.011,-1.871 C 135.976,194.055 135.839,189 135.839,189 z M 7.5351,124.527 c 0,0 0.5938,-22.996 15.2617,-51.343 0,0 0.5938,2.777 0.5938,2.777 0,0 -10.9024,16.848 -15.8555,48.566 z m 16.4453,30.598 c -0.3125,0 -0.5703,-0.371 -0.6211,-0.863 0.0899,0.336 0.2774,0.566 0.4922,0.566 0.3047,0 0.5508,-0.465 0.5508,-1.039 0,-0.219 -0.0352,-0.426 -0.0977,-0.594 0.1836,0.184 0.3125,0.512 0.3125,0.891 0,0.578 -0.2851,1.039 -0.6367,1.039 z m 58.3125,31.977 c -0.6054,0.136 -1.2109,0.261 -1.8047,0.379 8.2111,-9.504 14.0701,-27.075 14.0701,-27.075 -2.09,12.703 -9.531,23.192 -12.2654,26.696 z m 3.5934,0.41 c 0,0 0,1.637 0,1.637 -1.6363,1.191 -6.2457,1.339 -6.2457,1.339 0.8906,0 6.2457,-2.976 6.2457,-2.976 z m 2.36,-122.223 c 0.777,3.356 0.511,6.281 -0.586,6.535 -0.321,0.075 -0.676,-0.093 -1.039,-0.441 0.023,-0.004 0.047,0 0.07,-0.004 1.102,-0.254 1.367,-3.18 0.59,-6.535 -0.547,-2.375 -1.473,-4.328 -2.3556,-5.172 1.0936,-0.133 2.5666,2.336 3.3206,5.617 z m -7.512,-7.183 c 0,0 3.961,0.879 3.961,0.879 -0.0118,0.003 -0.0196,0.007 -0.0352,0.011 -0.2422,-0.051 -0.4766,-0.054 -0.7031,0.012 -1.6094,0.461 -2.0508,3.851 -0.9844,7.574 0.9258,3.235 2.6797,5.649 4.1757,5.93 0,0 -1.543,2.469 -1.543,2.469 -0.168,-0.043 -0.3397,-0.106 -0.5194,-0.204 -1.6563,-0.902 -3.4648,-3.871 -4.5039,-7.386 -0.5625,-1.914 -0.8477,-3.805 -0.8477,-5.399 0,-1.535 0.2657,-2.797 0.793,-3.527 0.0195,-0.035 0.1328,-0.227 0.207,-0.359 z m 3.8125,4.148 c 0,0.742 -0.2656,1.34 -0.5937,1.34 -0.3281,0 -0.5938,-0.598 -0.5938,-1.34 0,-0.738 0.2657,-1.336 0.5938,-1.336 0.3281,0 0.5937,0.598 0.5937,1.336 z M 79.457,57.82 c 0,0 0.6914,0.157 0.6914,0.157 0,0 -0.1133,0.195 -0.1133,0.195 -1.168,1.609 -1.1797,5.398 -0.0039,9.383 1.0938,3.711 3.2539,6.816 5.2581,7.933 0.097,0.055 -0.137,0.219 -0.3245,0.364 C 81.4101,74.668 79.4726,69.336 79.4726,69.336 76.9961,62.348 78.5859,59 79.457,57.82 z m 7.3203,28.743 c 0,0 -7.1367,-1.633 -7.1367,-1.633 0,0 -22.4258,4.195 -22.4258,4.195 3.3008,-6.117 14.7187,-14.211 16.6406,-15.547 2.2969,1.524 10.5,7.25 12.9219,12.985 z M 32.6835,64.637 c 0.3047,0.18 0.5118,0.508 0.5118,0.89 0,0.575 -0.4649,1.04 -1.0391,1.04 -0.5156,0 -0.9375,-0.375 -1.0234,-0.864 0.1523,0.336 0.4531,0.567 0.8086,0.567 0.5,0 0.9062,-0.465 0.9062,-1.039 0,-0.223 -0.0586,-0.426 -0.1641,-0.594 z m 0.8594,32.457 c 0.5742,0 1.0391,-0.465 1.0391,-1.039 0,-0.223 -0.0703,-0.426 -0.1875,-0.594 0.3476,0.18 0.582,0.512 0.582,0.891 0,0.574 -0.5312,1.039 -1.1875,1.039 -0.5859,0 -1.0742,-0.371 -1.1679,-0.864 0.1718,0.336 0.5156,0.567 0.9218,0.567 z m 1.5469,-22.649 c 0.3477,0.184 0.582,0.516 0.582,0.895 0,0.574 -0.5312,1.039 -1.1875,1.039 -0.5898,0 -1.0742,-0.375 -1.1718,-0.863 0.1757,0.336 0.5195,0.566 0.9218,0.566 0.5782,0 1.043,-0.465 1.043,-1.039 0,-0.223 -0.0703,-0.426 -0.1875,-0.598 z m -0.8828,12.27 c 0.1719,0.336 0.5156,0.57 0.9219,0.57 0.5742,0 1.039,-0.468 1.039,-1.043 0,-0.222 -0.0703,-0.425 -0.1875,-0.593 0.3477,0.179 0.586,0.511 0.586,0.89 0,0.574 -0.5352,1.039 -1.1914,1.039 -0.586,0 -1.0743,-0.371 -1.168,-0.863 z m -0.6836,-2.387 c 0,-0.136 -0.0078,-0.281 -0.0078,-0.418 1.4258,0.196 12.0898,1.68 14.3086,2.606 0,0 1.1406,-9.91 1.1406,-9.91 -4.1641,-1.59 -7.1367,-5.922 -7.1367,-10.36 0,-5.301 3.8867,-9.73 9.0781,-10.828 0,0 0.832,-7.211 0.832,-7.211 0,0 0,-0.273 0,-0.273 0.1836,-0.016 0.3633,-0.028 0.543,-0.039 0,0 -0.7891,7.3 -0.7891,7.3 0.4649,-0.054 1.4532,-0.05 1.9336,-0.05 6.4024,0 11.5938,4.968 11.5938,11.101 0,6.129 -5.1914,11.102 -11.5938,11.102 -1.4101,0 -2.7539,-0.254 -4,-0.692 0,0 -0.8554,11 -0.8554,11 C 45.75,86.246 35.6445,84.551 33.5234,84.328 z m 7.3125,-1.89 c 0.2891,0.152 0.4883,0.425 0.4883,0.742 0,0.48 -0.4453,0.867 -0.9922,0.867 -0.4883,0 -0.8906,-0.312 -0.9727,-0.719 0.1446,0.281 0.4336,0.473 0.7696,0.473 0.4765,0 0.8632,-0.387 0.8632,-0.867 0,-0.184 -0.0586,-0.352 -0.1562,-0.496 z m 6.4453,-5.25 c 0.2891,0.152 0.4844,0.425 0.4844,0.738 0,0.48 -0.4453,0.867 -0.9883,0.867 -0.4922,0 -0.8945,-0.308 -0.9766,-0.719 0.1446,0.282 0.4336,0.473 0.7696,0.473 0.4765,0 0.8672,-0.387 0.8672,-0.867 0,-0.184 -0.0586,-0.352 -0.1563,-0.492 z m -1.1094,7.668 c 0.4805,0 0.8672,-0.391 0.8672,-0.868 0,-0.183 -0.0586,-0.355 -0.1562,-0.496 0.289,0.157 0.4843,0.426 0.4843,0.743 0,0.48 -0.4414,0.867 -0.9882,0.867 -0.4883,0 -0.8946,-0.313 -0.9727,-0.719 0.1445,0.277 0.4297,0.473 0.7656,0.473 z M 45.4961,43.945 c -0.6758,-0.675 -0.2735,-1.421 -0.1407,-1.628 0,0 0.3438,0.535 0.3438,0.535 0,0 -0.0039,0.004 -0.0039,0.004 0.039,0.093 0.0898,0.168 0.1484,0.222 0,0 0.0469,0.074 0.0469,0.074 0,0 0.0195,-0.031 0.0195,-0.031 0.7852,0.508 2.5586,-2.148 2.5586,-2.148 1.6836,-1.289 1.0898,1.285 1.0898,1.285 1.0899,-0.199 0.3985,1.289 0.3985,1.289 0.9883,0.199 0.2969,1.488 0.2969,1.488 0,0 0.2968,0.696 0.2968,0.696 -0.2968,0.992 -2.3789,1.187 -2.3789,1.187 0,0 -1.3828,0.555 -1.3828,0.555 -1.4844,0.183 -2.8476,0.386 -4.0976,0.601 0,0 0.2265,-0.066 0.2265,-0.066 0,0 3.3711,-3.172 3.3711,-3.172 0,0 -0.7929,-0.891 -0.7929,-0.891 z M 51.3984,47 c -0.25,0.02 -0.4844,0.043 -0.7305,0.063 0,0 0.4766,-0.512 0.4766,-0.512 0,0 0.2539,0.449 0.2539,0.449 z m -0.1523,-4.641 c 0.0039,-0.015 0.0039,-0.031 0.0078,-0.046 0.0195,0.031 0.0351,0.058 0.0546,0.093 -0.039,-0.035 -0.0624,-0.047 -0.0624,-0.047 z m -0.4063,6.59 c 0,0.391 -0.4453,0.707 -0.9922,0.707 -0.4883,0 -0.8906,-0.254 -0.9726,-0.589 0.1445,0.23 0.4335,0.386 0.7695,0.386 0.4766,0 0.8633,-0.316 0.8633,-0.707 0,-0.148 -0.0586,-0.285 -0.1563,-0.402 0.2891,0.125 0.4883,0.348 0.4883,0.605 z m -0.9844,4.153 c 0.2891,0.133 0.4844,0.375 0.4844,0.648 0,0.422 -0.4414,0.758 -0.9883,0.758 -0.4883,0 -0.8906,-0.273 -0.9726,-0.629 0.1445,0.246 0.4336,0.414 0.7695,0.414 0.4766,0 0.8633,-0.34 0.8633,-0.758 0,-0.16 -0.0586,-0.308 -0.1563,-0.433 z m 1.7852,-9.059 c 0.0351,-0.547 -0.0078,-0.918 -0.0781,-1.168 0.7578,1.539 0.9804,3.277 1.0429,4.039 -0.1211,0.008 -0.2422,0.02 -0.3633,0.028 -0.0664,-0.329 -0.2812,-0.707 -0.4687,-0.993 0.3984,-0.539 -0.1328,-1.906 -0.1328,-1.906 z m 6.1445,1.586 c 0,0 0,1.035 0,1.035 -0.2656,0.008 -0.5273,0.016 -0.793,0.028 0,0 0,-1.161 0,-1.161 0,0 -1.0898,0.098 -1.0898,0.098 0,0 0.0547,1.098 0.0547,1.098 -0.7344,0.031 -1.4414,0.066 -2.1406,0.109 0,0 -0.3907,-1.504 -0.3907,-1.504 2.1407,-3.473 5.3828,-0.887 6.8946,0.653 0,0 0.0703,0.636 0.0703,0.636 -0.4766,0.004 -0.9531,0.008 -1.4141,0.016 0,0 0,-1.008 0,-1.008 0,0 -1.1914,0 -1.1914,0 z m 6.5547,1.09 c 0,0 0.0859,-2.18 0.0859,-2.18 0,0 0.8946,0 0.8946,0 0,0 -0.0469,2.254 -0.0469,2.254 -0.3438,-0.031 -0.6523,-0.055 -0.9336,-0.074 z M 56.789,90.012 c 0,0 0.2852,0.031 0.2852,0.031 0.3867,-0.039 0.8945,-0.035 1.4883,0.004 0,0 20.3359,-2.738 20.3359,-2.738 0,0 -3.8672,5.797 -3.8672,5.797 0,0 -11.4258,-2.735 -16.4687,-3.059 0,0 -0.629,0.086 -0.629,0.086 0,0 -0.8593,-0.09 -0.8593,-0.09 -0.1211,0.012 -0.2227,0.027 -0.3164,0.047 0.0117,-0.027 0.0195,-0.051 0.0312,-0.078 z m 22.9844,-2.68 c 0,0 4.625,0.125 4.625,0.125 0,0 -8.4375,5.09 -8.4375,5.09 1.1562,-1.305 3.0664,-4.102 3.8125,-5.215 z M 68.3906,49.336 c 0.289,0.121 0.4844,0.344 0.4844,0.606 0,0.386 -0.4415,0.703 -0.9883,0.703 -0.4883,0 -0.8906,-0.254 -0.9727,-0.586 0.1445,0.226 0.4297,0.386 0.7656,0.386 0.4805,0 0.8672,-0.316 0.8672,-0.707 0,-0.148 -0.0586,-0.289 -0.1562,-0.402 z m 2.5781,9.316 c 0.2891,0.153 0.4844,0.426 0.4844,0.743 0,0.476 -0.4414,0.863 -0.9883,0.863 -0.4922,0 -0.8945,-0.309 -0.9727,-0.715 0.1446,0.277 0.4297,0.469 0.7657,0.469 0.4765,0 0.8672,-0.387 0.8672,-0.867 0,-0.184 -0.0586,-0.352 -0.1563,-0.493 z m 1.9805,11.004 c 0.289,0.149 0.4883,0.422 0.4883,0.739 0,0.48 -0.4454,0.867 -0.9922,0.867 -0.4883,0 -0.8907,-0.313 -0.9727,-0.719 0.1445,0.277 0.4336,0.469 0.7656,0.469 0.4805,0 0.8672,-0.387 0.8672,-0.863 0,-0.184 -0.0586,-0.356 -0.1562,-0.493 z M 70.7695,43.848 c 0,0 0.8906,-0.598 1.5859,0.097 0,0 -0.0859,3.329 -0.0859,3.329 0,0 -0.1055,0.378 -0.1055,0.378 -0.5,-0.085 -0.9961,-0.164 -1.4883,-0.238 0,0 0.0938,-3.566 0.0938,-3.566 z m 3.9492,29.332 c -0.168,-0.125 -0.3437,-0.246 -0.5156,-0.371 0.5312,-7.059 -4.8203,-24.403 -4.8203,-24.403 0.1914,0.008 0.3672,0.028 0.5586,0.039 4.0703,14.055 4.6836,22.504 4.7773,24.735 z M 67.5,40.18 c 0,0 2.2773,5.25 2.2773,5.25 0,0 0,1.859 0,1.859 C 68.5859,47.125 67.457,47 66.4726,46.902 66.1484,45.996 65.414,43.629 66.2109,42.754 c 0,0 1.1914,-1.187 1.2891,-2.574 z m -3.8672,-7.438 c 0,0 -0.2969,3.075 2.5781,6.051 0,0 0.9805,2.559 -1.7578,4.242 -0.7344,0.067 -1.3125,-0.179 -1.3125,-0.179 -1.9844,-0.598 -5.4531,-0.297 -5.4531,-0.297 -5.1563,0.394 -5.8477,-2.875 -5.8477,-3.571 0,-0.691 2.082,-3.863 2.082,-3.863 0.5235,-2.019 -0.1953,-3.812 -0.5781,-4.57 0.25,0.023 0.5078,0.035 0.7656,0.023 0.6797,1.035 1.0977,4.942 1.0977,4.942 2.5781,1.191 7.7344,0.199 7.7344,0.199 0,0 -0.5977,-3.399 -0.5977,-3.399 0.4453,0.071 0.8945,0.2 1.2891,0.422 z M 51.3984,25.953 c 0,0 0.1016,-4.433 -1.3125,-6.793 0.6719,0.032 0.9805,-0.097 0.9805,-0.097 0,0 0.332,0.574 0.332,0.574 1.5781,1.793 3.1719,3.062 4.6523,3.972 0.0782,0.356 0.1719,0.809 0.2227,1.168 0.0117,0.172 0.0195,0.348 0.0273,0.52 0,0.004 0,0.012 -0.0039,0.012 0,0 0.0039,0 0.0039,0 0.0704,1.847 -0.125,3.64 -1.0429,4.164 0,0 -1.4844,0.746 -2.3789,0.301 0,0 -0.9375,-0.598 -2.5547,-0.825 0.7265,-0.66 1.3281,-1.636 1.0742,-2.996 z m 8.7656,6.395 c 0,0 0.6875,-0.129 1.5313,-0.09 0.2695,0.977 0.4531,2.668 0.4531,2.668 -3.4727,1.683 -6.3438,-0.199 -6.3438,-0.199 -0.0781,-0.7 -0.8281,-3.168 -1.1445,-4.196 0.6836,-0.105 1.3594,-0.371 1.9375,-0.91 0,0 0.3789,-2.59 0.375,-4.457 0.1953,-0.031 0.7149,0.008 1.2539,1.137 0,0 0.1563,5.355 0.1563,5.355 0,0 -0.1016,1.188 1.7812,0.692 z m 9.0391,-19.739 c -1.086,1.403 -3.4141,0.676 -3.4141,0.676 -0.1914,-0.496 0.4024,-1.039 0.4024,-1.039 0.0156,-0.008 0.0234,-0.011 0.0351,-0.019 0.0352,0.371 0.4375,0.66 0.9336,0.66 0.5234,0 0.9453,-0.317 0.9453,-0.711 0,-0.25 -0.1719,-0.469 -0.4258,-0.598 1.5821,-0.398 1.5235,1.031 1.5235,1.031 z M 68.2226,4.613 c 0.0899,-0.027 0.1797,-0.035 0.2695,-0.031 0.3282,-0.008 0.6524,0.18 0.9219,0.504 0.0078,0.012 0.0195,0.02 0.0274,0.031 0.0273,0.039 0.0586,0.075 0.0859,0.114 0.0781,0.105 0.1484,0.214 0.2109,0.336 0,0 -0.0195,-0.102 -0.0195,-0.102 0.2461,0.437 0.4336,0.965 0.3281,1.691 0,0 -0.0117,-0.062 -0.0117,-0.062 -0.0664,0.605 -0.3555,1.09 -0.8047,1.219 C 68.5546,8.512 67.7812,7.844 67.5,6.824 67.2226,5.801 67.5429,4.813 68.2226,4.613 z M 66.3515,5.535 C 66.6211,5.524 66.8984,5.481 67.1796,5.43 66.9414,5.981 67.082,6.692 67.082,6.692 c 0,0 -0.5274,0.363 -0.5274,0.363 C 66.125,6.582 66.2382,5.91 66.3515,5.535 z M 65.914,5.602 c 0,0 -0.2539,1.804 1.0039,2.812 0,0 -1.8437,-0.953 -1.0039,-2.812 z M 62,4.551 c 0.0937,0.062 0.1835,0.137 0.2656,0.219 0,0 0.0039,0.004 0.0039,0.004 0.3555,0.347 0.5781,0.832 0.5781,1.375 0,1.062 -0.8555,1.921 -1.9101,1.921 -0.004,0 -0.0118,-0.003 -0.0157,-0.003 -0.0078,0 -0.0117,0.003 -0.0195,0.003 C 60.8632,8.07 60.8281,8.063 60.789,8.059 60.7382,8.055 60.6914,8.051 60.6406,8.043 59.6992,7.914 58.9687,7.117 58.9687,6.137 c 0,-1.067 0.8672,-1.93 1.9336,-1.93 0.4062,0 0.7852,0.125 1.0977,0.344 z m -4.1289,1.391 c 0,0 -0.4141,0.152 -0.4141,0.152 0,0 0.2461,-0.973 1.5351,-1.383 0,0 -1.371,1.895 0.2891,3.125 0,0 -0.4531,0.664 -0.4531,0.664 0,0 -0.9141,-0.152 -1.3711,-1.226 0,0 0.5781,-0.309 0.5781,-0.309 0,0 -0.164,-1.023 -0.164,-1.023 z m 0.1132,-3.93 c 0.168,-0.195 0.3321,-0.281 0.3321,-0.281 -0.0625,0.793 0.2421,0.613 0.2421,0.613 0.3047,-0.981 0.7969,-1.043 0.7969,-1.043 1.0391,0.613 1.4024,2.262 1.4024,2.262 -0.5508,-1.098 -1.6485,-1.957 -1.6485,-1.957 -0.414,0.722 -0.2617,2.136 -0.2031,2.562 -0.0039,0 -0.0039,0.004 -0.0078,0.004 C 58.7421,3.434 58.2539,2.832 58.2539,2.832 58.0156,3.227 58.1093,4.027 58.207,4.547 58.1679,4.57 58.1289,4.606 58.0859,4.633 57.4804,3.527 57.5546,2.785 57.7773,2.328 57.289,2.945 56.3281,4.266 56.2226,5.313 c 0,0 -0.3398,-2.618 1.7617,-3.301 z M 50.5,5.094 c -0.4454,0.594 -0.4454,2.078 -0.4454,2.078 0.2969,-1.336 2.3789,-3.418 2.3789,-3.418 0,0 0.0469,1.188 0.0469,1.188 0.7461,-2.133 4.3125,-3.075 4.3125,-3.075 -5.25,1.59 -4.707,7.239 -4.707,7.239 C 51.2929,7.817 51.8398,5.238 51.8398,5.238 50.0546,6.875 50.5,10.738 50.5,10.738 49.707,9.602 49.9062,7.965 49.9062,7.965 49.6093,8.363 49.4609,9.551 49.4609,9.551 49.164,6.281 50.5,5.094 50.5,5.094 z m 4.9179,0.875 c -0.0937,0.418 -0.1953,0.848 -0.2929,1.238 -0.2618,0.18 -0.5586,0.41 -0.8868,0.68 0.1719,-0.414 0.3477,-0.738 0.5235,-0.918 0,0 0.3164,-0.516 0.6133,-1.129 0,0 0.0429,0.129 0.0429,0.129 z m -5.5703,7.121 c 0,0 0.6641,2.184 1.4414,2.758 0,0 -0.0625,-2.176 0.0977,-3.879 0.1172,-0.149 0.2422,-0.305 0.3828,-0.469 0.1953,1.199 0.5469,3.156 0.7734,3.391 0,0 0.4961,-3.032 1.1563,-5.383 0.8945,-0.781 1.9414,-1.516 3.0937,-1.984 0,0 0.7188,1.722 3.211,1.839 0,0 1.9375,0.286 3.0468,-1.437 0,0 1.918,-0.051 2.9102,0.246 0.0195,0.066 0.0391,0.137 0.0625,0.211 0,0 -1.9961,1.609 -1.332,3.902 0,0 1.1093,2.989 1.1093,2.989 0,0 0.8868,0.461 0.8868,0.461 0,0 -0.5743,0.531 -0.9063,0.761 0,0 -0.0195,0 -0.0547,0 -0.0039,0.028 -0.0156,0.047 -0.0195,0.071 0,0 -0.5703,0.277 -0.5703,0.277 0,0 -1.5508,-0.039 -2.1446,0.535 0,0 1.5508,0.227 1.4063,0.609 0,0 0.0977,0.161 0.1953,0.286 0.0703,0.371 0.3516,0.691 0.5859,0.902 0,0 0.1758,0.269 0.1758,0.269 0,0 -0.4414,0.305 -0.4414,0.305 0,0 -0.6836,-0.441 -0.6836,-0.441 0,0 -2.1054,0 -3.9336,1.152 0,0 -1.1601,-0.289 -1.1601,-0.289 0,0 0.5508,0.746 1.5508,0.633 0,0 2.3437,-0.481 3.1171,-0.25 0,0 0.9805,0.191 0.9805,0.191 0,0 0.461,-0.191 0.461,-0.191 0,0 0.5351,0.765 0.2031,0.996 0,0 -2.918,0.437 -2.918,0.437 0,0 -1.2383,-0.324 -1.2383,-0.324 0,0 0.8516,0.844 0.8516,0.844 0,0 2.2148,-0.117 2.5469,0.344 0,0 -0.5586,1.73 -1.5899,2.109 -0.664,0.074 -1.3984,-0.043 -1.3984,-0.043 -7.6446,-1.953 -10.4141,-7.004 -10.4141,-7.004 -0.1133,1.262 -2.1055,0.574 -2.1055,0.574 0,0 -0.0664,-0.015 -0.0664,-0.015 -1.0625,-0.586 -2.8007,-1.676 -3.0351,-2.969 0,0 0.2226,-3.219 3.7656,-2.414 z m -4.4687,15.73 c -1.4258,0.125 -2.9063,-0.238 -2.9063,-0.238 6.3906,0.891 2.2305,-9.961 2.2305,-9.961 -0.8906,-1.488 -1.4883,-4.015 -1.4883,-4.015 0,-5.946 4.6094,-3.567 4.6094,-3.567 -6.3946,-0.894 -3.1211,5.797 -3.1211,5.797 3.418,5.649 3.2695,9.813 3.2695,9.813 -0.0195,0.421 -0.1289,0.769 -0.3008,1.046 0.4219,-2.289 -1.1836,-5.507 -1.1836,-5.507 1.3086,4.191 0.1055,5.918 -1.1093,6.632 z m 5.2695,0.954 c 0,0 0.8867,0.457 2.0508,0.687 1.4414,2.524 0.5273,4.363 0.5273,4.363 0,0 -1.2422,1.571 -1.2422,1.571 -1.5703,-2.235 -3.6132,-0.477 -3.6132,-0.477 0,0 0.9882,0.195 0.9882,0.195 0,0 -1.3867,3.274 -1.3867,3.274 0.3985,-0.992 -0.6914,-1.488 -0.6914,-1.488 0,0 -0.7266,1.046 -0.7266,1.046 0,0 -1.457,-2.23 -1.457,-2.23 0.7188,-1.73 3.2774,-7.449 5.5508,-6.941 z m -9.1172,7.035 c 0.8906,-1.985 2.4766,-1.684 2.4766,-1.684 0,0 0.2968,1.586 0.2968,1.586 -0.7539,0.274 -1.2148,0.731 -1.4335,0.992 0,0 -1.3399,-0.894 -1.3399,-0.894 z m 1.4844,0.992 c 0,0 -0.0781,-0.055 -0.0781,-0.055 0.664,-0.445 1.3242,-0.504 1.7148,-0.484 0,0 2.7656,4.449 2.7656,4.449 -0.3164,0.293 -0.7812,0.594 -1.1484,0.82 0,0 -3.2539,-4.73 -3.2539,-4.73 z m 0.7344,2.004 c 0,0 1.3671,2.133 1.3671,2.133 0,0 -0.414,-0.473 -0.414,-0.473 -0.4961,1.984 0.2969,3.57 0.2969,3.57 0,0 -3.7696,2.973 -3.7696,2.973 0,0 -0.4062,0.41 -0.4062,0.41 -0.0703,0.012 -0.1524,0.024 -0.2227,0.039 -0.2148,0.028 -0.4258,0.059 -0.6367,0.086 1.4687,-1.605 3.25,-7.035 3.7852,-8.738 z M 32.9062,51.574 c 0,0 1.1914,-1.98 13.082,-2.773 0,0 -11.8906,1.387 -15.0625,15.66 0,0 -0.5937,1.191 -0.5937,1.191 0,0 -0.793,-1.585 -0.793,-1.585 0,0 7.1367,-12.493 3.3672,-12.493 z m -6.0586,35.297 c -0.0508,-0.89 -0.1172,-1.801 -0.1992,-2.707 0.5273,-0.265 0.9062,-0.953 0.9062,-1.762 0,-1.023 -0.5976,-1.847 -1.3437,-1.878 -0.1133,-0.719 -0.2383,-1.426 -0.3789,-2.122 1.8476,0.274 2.6172,1.438 2.9297,2.512 0.0781,1.52 0.0976,3.02 0.0664,4.481 -0.6055,0.773 -1.4531,1.242 -1.9805,1.476 z m 1.9336,-0.16 c -0.0039,0.129 -0.0117,0.262 -0.0195,0.395 0,0 -0.0156,-0.243 -0.0156,-0.243 0,0 0.0351,-0.152 0.0351,-0.152 z m -1.7891,5.316 c -0.0039,-0.523 -0.0078,-1.054 -0.0156,-1.605 0,0 1.6211,-0.813 1.6211,-0.813 -0.082,0.981 -0.1797,1.926 -0.293,2.833 0.0313,-0.516 0.043,-0.825 0.043,-0.825 0,0 -1.3555,0.41 -1.3555,0.41 z M 26.9765,77.731 c -0.4922,-0.258 -0.9844,-0.368 -1.3828,-0.403 -0.0937,-0.41 -0.1992,-0.812 -0.3086,-1.207 0,0 2.6484,-2.023 2.6484,-2.023 0.1797,0.914 0.336,1.832 0.4571,2.75 0,0 -1.4141,0.883 -1.4141,0.883 z m -0.9101,26.343 c 7.5937,-16.136 2.2812,-32.672 2.2812,-32.672 -1.2617,-3.558 -2.1211,-5.324 -2.6992,-5.929 0,0 1.5117,-3.192 1.5117,-3.192 0,0 8.7227,12.887 4.1641,33.106 0,0 -1.5821,8.933 -6.2149,13.625 0.3438,-1.598 0.6719,-3.235 0.9571,-4.938 z m 4.8086,0.211 c 0.2617,0.18 0.4375,0.508 0.4375,0.887 0,0.574 -0.3985,1.043 -0.8907,1.043 -0.4414,0 -0.8007,-0.375 -0.875,-0.867 0.1289,0.336 0.3907,0.57 0.6914,0.57 0.4297,0 0.7774,-0.469 0.7774,-1.043 0,-0.219 -0.0508,-0.426 -0.1406,-0.59 z m -0.6563,48.762 c 0.4688,0 0.8477,-0.469 0.8477,-1.039 0,-0.223 -0.0586,-0.426 -0.1524,-0.594 0.2813,0.18 0.4727,0.508 0.4727,0.887 0,0.578 -0.4336,1.043 -0.9649,1.043 -0.4765,0 -0.8711,-0.375 -0.9492,-0.863 0.1406,0.332 0.4219,0.566 0.7461,0.566 z m -5.2109,4.488 c 0.2265,-1.726 1.7265,-2.34 3.4023,-2.476 3.2695,0.027 5.875,1.574 7.5078,2.902 13.711,13.578 18.7422,27.238 19.6328,29.918 -0.3164,-0.055 -0.6132,-0.113 -0.9023,-0.168 -6.668,-16.566 -19.3945,-27.633 -19.3945,-27.633 -6.6875,-6.066 -9.3907,-3.074 -10.1954,-1.668 -0.0195,-0.332 -0.0351,-0.636 -0.0507,-0.875 z m 17.9336,11.91 c 0,0 -0.7657,0.528 -0.7657,0.528 0,0 -1.289,-1.688 -1.289,-1.688 0,0 0.5976,-0.672 0.5976,-0.672 0.5,0.614 0.9844,1.223 1.4571,1.832 z M 29.6875,157.219 c 0,0 0,1.058 0,1.058 -0.2969,-0.25 -1.9844,-0.3 -1.9844,-0.3 0,0 -0.2383,-1.078 -0.2383,-1.078 0.6953,-0.09 1.4609,0.05 2.2227,0.32 z m -1.7344,10.324 c -1.8399,-2.988 -2.543,-5.769 -2.8125,-7.586 -0.0117,-0.258 -0.0274,-0.539 -0.043,-0.82 0.418,-1.313 1.1485,-1.953 2.0195,-2.172 0,0 0.3907,1.41 0.3907,1.41 1.039,-0.199 2.4765,0.297 2.4765,0.297 0,0 0.1211,-1.297 0.1211,-1.297 2.125,0.871 4.0703,2.551 4.0703,2.551 2.5821,2.309 4.9219,4.809 7.0196,7.34 0,0 -0.8047,0.922 -0.8047,0.922 0,0 1.6367,2.23 1.6367,2.23 0,0 1.2344,-0.551 1.2344,-0.551 6.1718,8.094 9.789,15.852 10.6015,17.684 -1.0586,-0.227 -1.9101,-0.445 -2.5273,-0.617 -7.707,-15.739 -18.4297,-19.192 -18.4297,-19.192 -2.1797,-0.992 -4.9531,-0.199 -4.9531,-0.199 z m 12.0664,18.965 c 0,0 -0.4141,-4.309 -0.4141,-4.309 0.4258,-0.09 0.8711,-0.214 1.3321,-0.382 0,0 0.0546,-2.418 0.0546,-2.418 0,0 1.504,1.089 1.504,1.089 0,0 0.2226,2.02 0.2226,2.02 0.1445,0.078 0.293,0.141 0.4375,0.199 -0.7812,0.242 -2.3672,1.074 -3.1367,3.801 z m 0.2226,0.477 c -0.0664,-0.016 -0.121,-0.028 -0.1796,-0.043 0,0 -0.0079,-0.09 -0.0079,-0.09 0,0 0.1875,0.133 0.1875,0.133 z m 0.7852,-9.161 c 0,0 0.0391,-1.484 0.0391,-1.484 0,0 1.0586,0.816 1.0586,0.816 0,0 0.1875,1.696 0.1875,1.696 0,0 -1.2852,-1.028 -1.2852,-1.028 z m 2.1836,6.356 c 0,0 -0.1758,2.91 -0.1758,2.91 -0.6953,0.133 -1.0703,0.434 -1.2539,0.645 -0.2148,-0.188 -0.4648,-0.336 -0.7148,-0.454 0.1054,-0.73 0.5351,-2.636 2.1445,-3.101 z m -0.293,4.476 c 1.2891,0.989 3.3711,0.098 3.3711,0.098 0,0 -0.0898,2.43 -0.0898,2.43 -0.6407,0.043 -1.3164,0.039 -1.9922,-0.051 0,0 -0.6211,0.008 -1.5274,-0.055 0,0 -0.1171,-0.719 -0.1171,-0.719 0,0 0.3554,-1.703 0.3554,-1.703 z m 0.6953,-0.695 c 0,0 0.2813,-5.016 0.2813,-5.016 0.7422,0.18 1.4492,0.204 1.9766,0.172 0,0 -0.4766,5.141 -0.4766,5.141 -0.9883,0.297 -1.7813,-0.297 -1.7813,-0.297 z m -0.2968,-6.047 c 0,0 0,-4.262 0,-4.262 0.3476,-0.058 0.7656,-0.046 1.0468,-0.031 0.8868,1.114 1.6836,2.223 2.3907,3.281 0,0 -0.1485,1.329 -0.1485,1.329 -2.0351,0.55 -3.289,-0.317 -3.289,-0.317 z m -11.4102,-9.062 c 0,0 -0.2617,-4.485 -0.2617,-4.485 0,0 0.668,0.168 0.668,0.168 1.6445,0.469 3.1992,1.219 4.6601,2.153 0,0 0,1.414 0,1.414 0,0 -0.0547,0.379 -0.0547,0.379 -2.2226,0.015 -4.2773,0.269 -5.0117,0.371 z m 1.4531,0.652 c 1.375,-0.012 3.3164,-0.07 4.8789,-0.121 0,0 0.7891,5.121 0.7891,5.121 -1.6328,0.309 -3.5625,0.285 -4.3555,0.254 0,0 -1.3125,-5.254 -1.3125,-5.254 z m 1.9258,7.719 c 0,0 -0.5781,-2.321 -0.5781,-2.321 1.3828,0.446 3.4258,0.211 4.3906,0.059 0,0 0.3516,2.262 0.3516,2.262 0,0 -2.2813,0.988 -4.1641,0 z m 2.2266,1.156 c 0.3945,0.016 0.8281,0 1.289,-0.055 0,0 0.7149,5.188 0.7149,5.188 -0.3438,0.269 -0.9844,0.18 -1.1211,0.156 0,0 -0.8828,-5.289 -0.8828,-5.289 z m 3.9179,6.078 c 0,0 0.0938,2.516 0.0938,2.516 -1.6289,-0.199 -3.6172,-0.633 -4.8633,-1.586 0,0 -0.0859,-1.129 -0.0859,-1.129 2.3789,0.992 4.8554,0.199 4.8554,0.199 z m -5.9453,1.188 c 0,0 0.8907,1.785 8.7227,2.382 0,0 2.0351,0.204 4.3633,-0.289 0,0 0,3.09 0,3.09 -1.3203,0.278 -2.8711,0.512 -4.1641,0.469 0,0 -6.543,-0.102 -9.1211,-2.875 0,0 0.1992,-2.777 0.1992,-2.777 z m 8.0313,18.386 c -10.1133,-4.609 -17.8438,-6.988 -17.8438,-6.988 0,0 9.0547,-7.922 9.0547,-7.922 0.7266,0.59 3.3008,2.321 8.9531,2.871 0.4102,3.657 -0.164,12.039 -0.164,12.039 z m 17.8359,-9.218 c -1.9297,1.488 -16.7969,9.668 -16.7969,9.668 0,0 -0.4414,-12.454 -0.4414,-12.454 0.2305,0.02 0.4493,0.043 0.6875,0.063 0,0 5.0274,-0.375 6.9219,-1.324 0,0 9.6289,4.047 9.6289,4.047 z m -9.2187,-7.157 c 0,0 -0.0508,-0.691 -0.0508,-0.691 0,-0.039 0,-0.078 0,-0.109 0.0273,-0.071 0.0351,-0.168 -0.0078,-0.289 -0.0469,-0.469 -0.2227,-0.555 -0.4141,-0.485 -0.289,-0.226 -0.7539,-0.484 -1.4844,-0.773 0.0782,-0.321 0.1407,-0.762 0.1328,-1.328 3.6641,1.07 7.4415,1.628 11.0508,1.863 -4.3867,0.535 -7.8867,1.433 -9.2265,1.812 z m 4.25,-3.632 C 50.9453,171.359 37.8242,158.41 35.3125,156.043 c 1.121,-50.766 23.3632,-65.016 23.3632,-65.016 0,0 -0.5468,-0.222 -0.5468,-0.222 3.7773,1.047 12.5078,3.273 17.6484,3.047 0,0 0.1523,-0.094 0.4258,-0.258 0.7109,3.461 2.6875,16.101 1.7031,46.594 0,0 -0.3867,37.343 -5.1758,48.371 -6.7929,0.582 -12.414,0.105 -16.3476,-0.535 z M 77.1914,93.008 c 2.7656,-1.641 8.6479,-5.106 8.9919,-5.106 10.387,17.274 9.715,49.629 8.785,64.204 -2.253,18.105 -13.4293,32.57 -15.9527,35.64 -1.6367,0.285 -3.2188,0.5 -4.75,0.664 0.9922,-6.054 7.5469,-48.699 2.9258,-95.402 z M 106.89,199.512 c -11.3547,-0.383 -21.3707,1.129 -23.433,1.465 -1.4375,-1.528 -5.75,-5.434 -5.75,-5.434 -0.2969,-1.34 12.9373,-5.797 12.9373,-5.797 2.36,1.18 13.6247,8.141 16.2457,9.766 z" />
      </g>
      <g
         id="g22244"
         style="fill:#11137e;fill-rule:evenodd;stroke:none"
         transform="translate(79.1641,518.57)">
        <path
           id="path22246"
           d="M 0,0 C 0.0312,0.035 0.0586,0.075 0.0859,0.114 0.0586,0.075 0.0273,0.039 0,0 z" />
      </g>
      <g
         id="g22248"
         style="fill:#11137e;fill-rule:evenodd;stroke:none"
         transform="translate(71.9883,518.223)">
        <path
           id="path22250"
           d="M 0,0 C 0,0 0.0039,0.004 0.0039,0.004 0.0039,0.004 0,0 0,0 z" />
      </g>
      <g
         id="g22252"
         style="fill:#11137e;fill-rule:evenodd;stroke:none"
         transform="translate(70.5117,521.512)">
        <path
           id="path22254"
           d="M 0.1133,0.011 C 0.1211,0.011 0.125,0.008 0.1328,0.008 0.0899,0.008 0.0469,0.004 0,0 0.0391,0.004 0.0742,0.011 0.1133,0.011 z" />
      </g>
    </g>
    <text
       xml:space="preserve"
       style="font-size:40px;font-style:normal;font-variant:normal;font-weight:normal;font-stretch:normal;fill:#000000;fill-opacity:1;stroke:none;font-family:FreeSerif;-inkscape-font-specification:FreeSerif"
       x="241.66667"
       y="67.777779"
       id="text4086"><tspan
         sodipodi:role="line"
         id="tspan4088"
         x="241.66667"
         y="67.777779"
         style="font-size:56px;font-style:normal;font-variant:normal;font-weight:normal;font-stretch:normal;font-family:FreeSerif;-inkscape-font-specification:FreeSerif">Linux Chix</tspan><tspan
         sodipodi:role="line"
         x="241.66667"
         y="67.777779"
         style="font-size:56px;font-style:normal;font-variant:normal;font-weight:normal;font-stretch:normal;font-family:FreeSerif;-inkscape-font-specification:FreeSerif"
         id="tspan4104" /></text>
    <text
       xml:space="preserve"
       style="font-size:28px;font-style:normal;font-variant:normal;font-weight:normal;font-stretch:normal;fill:#000000;fill-opacity:1;stroke:none;font-family:Ubuntu;-inkscape-font-specification:Ubuntu"
       x="44.444443"
       y="115"
       id="text4106"><tspan
         sodipodi:role="line"
         x="44.444443"
         y="115"
         id="tspan4110"
         style="font-style:normal;font-variant:normal;font-weight:normal;font-stretch:normal;font-family:FreeSerif;-inkscape-font-specification:FreeSerif">LinuxChix is a community for women who like Linux  and </tspan><tspan
         sodipodi:role="line"
         x="44.444443"
         y="150"
         id="tspan4112"
         style="font-style:normal;font-variant:normal;font-weight:normal;font-stretch:normal;font-family:FreeSerif;-inkscape-font-specification:FreeSerif">for anyone who wants to support women in computing.</tspan><tspan
         sodipodi:role="line"
         x="44.444443"
         y="185"
         id="tspan4114"
         style="font-style:normal;font-variant:normal;font-weight:normal;font-stretch:normal;font-family:FreeSerif;-inkscape-font-specification:FreeSerif" /><tspan
         sodipodi:role="line"
         x="44.444443"
         y="220"
         id="tspan4122"
         style="font-style:normal;font-variant:normal;font-weight:normal;font-stretch:normal;font-family:FreeSerif;-inkscape-font-specification:FreeSerif">The international Linux Chix community offers:</tspan><tspan
         sodipodi:role="line"
         x="44.444443"
         y="255"
         id="tspan4124"
         style="font-style:normal;font-variant:normal;font-weight:normal;font-stretch:normal;font-family:FreeSerif;-inkscape-font-specification:FreeSerif" /><tspan
         sodipodi:role="line"
         x="44.444443"
         y="290"
         id="tspan4118"
         style="font-style:normal;font-variant:normal;font-weight:normal;font-stretch:normal;font-family:FreeSerif;-inkscape-font-specification:FreeSerif"> - Technical and discussion mailing lists and chat</tspan><tspan
         sodipodi:role="line"
         x="44.444443"
         y="325"
         id="tspan4120"
         style="font-style:normal;font-variant:normal;font-weight:normal;font-stretch:normal;font-family:FreeSerif;-inkscape-font-specification:FreeSerif"> - Online courses</tspan><tspan
         sodipodi:role="line"
         x="44.444443"
         y="360"
         id="tspan4116"
         style="font-style:normal;font-variant:normal;font-weight:normal;font-stretch:normal;font-family:FreeSerif;-inkscape-font-specification:FreeSerif"> - Local chapters</tspan><tspan
         sodipodi:role="line"
         x="44.444443"
         y="395"
         id="tspan4126"
         style="font-style:normal;font-variant:normal;font-weight:normal;font-stretch:normal;font-family:FreeSerif;-inkscape-font-specification:FreeSerif"> - Links to other resources for women in computing</tspan></text>
    <text
       xml:space="preserve"
       style="font-size:40px;font-style:normal;font-variant:normal;font-weight:normal;font-stretch:normal;text-align:justify;text-anchor:start;fill:#000000;fill-opacity:1;stroke:none;font-family:Ubuntu;-inkscape-font-specification:Ubuntu"
       x="251.38889"
       y="548.33331"
       id="text4128"><tspan
         sodipodi:role="line"
         id="tspan4130"
         x="251.38889"
         y="548.33331"
         style="-inkscape-font-specification:FreeSerif;font-family:FreeSerif;font-weight:normal;font-style:normal;font-stretch:normal;font-variant:normal">LinuxChix.org</tspan></text>
  </g>
</svg>
